<mxfile host="app.diagrams.net" modified="2024-04-24T16:13:43.516Z" agent="Mozilla/5.0 (Windows NT 10.0; Win64; x64; rv:125.0) Gecko/20100101 Firefox/125.0" version="24.3.0" etag="B2FVhNy3e5M0SNRhoElx" type="github">
  <diagram name="PÃ¡gina-1" id="9hgUPiRQpQGxc2mR029Y">
    <mxGraphModel>
      <root>
        <mxCell id="0" />
        <mxCell id="1" parent="0" />
      </root>
    </mxGraphModel>
  </diagram>
</mxfile>
